<svg id="visual" viewBox="0 0 900 600" width="900" height="600" xmlns="http://www.w3.org/2000/svg" xmlns:xlink="http://www.w3.org/1999/xlink" version="1.1"><rect x="0" y="0" width="900" height="600" fill="#000000"></rect><path d="M0 344L10.7 351.3C21.3 358.7 42.7 373.3 64.2 371C85.7 368.7 107.3 349.3 128.8 341C150.3 332.7 171.7 335.3 193 344.8C214.3 354.3 235.7 370.7 257 378C278.3 385.3 299.7 383.7 321.2 382.7C342.7 381.7 364.3 381.3 385.8 380.5C407.3 379.7 428.7 378.3 450 370.3C471.3 362.3 492.7 347.7 514.2 350.7C535.7 353.7 557.3 374.3 578.8 373.7C600.3 373 621.7 351 643 345.8C664.3 340.7 685.7 352.3 707 360.2C728.3 368 749.7 372 771.2 368.8C792.7 365.7 814.3 355.3 835.8 358.7C857.3 362 878.7 379 889.3 387.5L900 396L900 601L889.3 601C878.7 601 857.3 601 835.8 601C814.3 601 792.7 601 771.2 601C749.7 601 728.3 601 707 601C685.7 601 664.3 601 643 601C621.7 601 600.3 601 578.8 601C557.3 601 535.7 601 514.2 601C492.7 601 471.3 601 450 601C428.7 601 407.3 601 385.8 601C364.3 601 342.7 601 321.2 601C299.7 601 278.3 601 257 601C235.7 601 214.3 601 193 601C171.7 601 150.3 601 128.8 601C107.3 601 85.7 601 64.2 601C42.7 601 21.3 601 10.7 601L0 601Z" fill="#595959"></path><path d="M0 379L10.7 381.2C21.3 383.3 42.7 387.7 64.2 396C85.7 404.3 107.3 416.7 128.8 414.7C150.3 412.7 171.7 396.3 193 396.7C214.3 397 235.7 414 257 421C278.3 428 299.7 425 321.2 422.2C342.7 419.3 364.3 416.7 385.8 408.5C407.3 400.3 428.7 386.7 450 380.8C471.3 375 492.7 377 514.2 383.8C535.7 390.7 557.3 402.3 578.8 412.2C600.3 422 621.7 430 643 435.3C664.3 440.7 685.7 443.3 707 442.7C728.3 442 749.7 438 771.2 425.3C792.7 412.7 814.3 391.3 835.8 388.7C857.3 386 878.7 402 889.3 410L900 418L900 601L889.3 601C878.7 601 857.3 601 835.8 601C814.3 601 792.7 601 771.2 601C749.7 601 728.3 601 707 601C685.7 601 664.3 601 643 601C621.7 601 600.3 601 578.8 601C557.3 601 535.7 601 514.2 601C492.7 601 471.3 601 450 601C428.7 601 407.3 601 385.8 601C364.3 601 342.7 601 321.2 601C299.7 601 278.3 601 257 601C235.7 601 214.3 601 193 601C171.7 601 150.3 601 128.8 601C107.3 601 85.7 601 64.2 601C42.7 601 21.3 601 10.7 601L0 601Z" fill="#5e8155"></path><path d="M0 466L10.7 468C21.3 470 42.7 474 64.2 469.3C85.7 464.7 107.3 451.3 128.8 451.3C150.3 451.3 171.7 464.7 193 469.7C214.3 474.7 235.7 471.3 257 473.2C278.3 475 299.7 482 321.2 478C342.7 474 364.3 459 385.8 449C407.3 439 428.7 434 450 432C471.3 430 492.7 431 514.2 437.2C535.7 443.3 557.3 454.7 578.8 452.7C600.3 450.7 621.7 435.3 643 436.7C664.3 438 685.7 456 707 458.7C728.3 461.3 749.7 448.7 771.2 441.2C792.7 433.7 814.3 431.3 835.8 434.2C857.3 437 878.7 445 889.3 449L900 453L900 601L889.3 601C878.7 601 857.3 601 835.8 601C814.3 601 792.7 601 771.2 601C749.7 601 728.3 601 707 601C685.7 601 664.3 601 643 601C621.7 601 600.3 601 578.8 601C557.3 601 535.7 601 514.2 601C492.7 601 471.3 601 450 601C428.7 601 407.3 601 385.8 601C364.3 601 342.7 601 321.2 601C299.7 601 278.3 601 257 601C235.7 601 214.3 601 193 601C171.7 601 150.3 601 128.8 601C107.3 601 85.7 601 64.2 601C42.7 601 21.3 601 10.7 601L0 601Z" fill="#5aa94d"></path><path d="M0 525L10.7 519.8C21.3 514.7 42.7 504.3 64.2 504.5C85.7 504.7 107.3 515.3 128.8 521.7C150.3 528 171.7 530 193 531.8C214.3 533.7 235.7 535.3 257 528.3C278.3 521.3 299.7 505.7 321.2 501C342.7 496.3 364.3 502.7 385.8 500.5C407.3 498.3 428.7 487.7 450 483.8C471.3 480 492.7 483 514.2 485.2C535.7 487.3 557.3 488.7 578.8 492.2C600.3 495.7 621.7 501.3 643 503.8C664.3 506.3 685.7 505.7 707 502C728.3 498.3 749.7 491.7 771.2 492C792.7 492.3 814.3 499.7 835.8 501.7C857.3 503.7 878.7 500.3 889.3 498.7L900 497L900 601L889.3 601C878.7 601 857.3 601 835.8 601C814.3 601 792.7 601 771.2 601C749.7 601 728.3 601 707 601C685.7 601 664.3 601 643 601C621.7 601 600.3 601 578.8 601C557.3 601 535.7 601 514.2 601C492.7 601 471.3 601 450 601C428.7 601 407.3 601 385.8 601C364.3 601 342.7 601 321.2 601C299.7 601 278.3 601 257 601C235.7 601 214.3 601 193 601C171.7 601 150.3 601 128.8 601C107.3 601 85.7 601 64.2 601C42.7 601 21.3 601 10.7 601L0 601Z" fill="#49d23f"></path><path d="M0 559L10.7 561.3C21.3 563.7 42.7 568.3 64.2 567.8C85.7 567.3 107.3 561.7 128.8 553.8C150.3 546 171.7 536 193 540.2C214.3 544.3 235.7 562.7 257 564.2C278.3 565.7 299.7 550.3 321.2 542.2C342.7 534 364.3 533 385.8 537C407.3 541 428.7 550 450 557.5C471.3 565 492.7 571 514.2 564.5C535.7 558 557.3 539 578.8 532.5C600.3 526 621.7 532 643 535.8C664.3 539.7 685.7 541.3 707 546.2C728.3 551 749.7 559 771.2 555.7C792.7 552.3 814.3 537.7 835.8 537.2C857.3 536.7 878.7 550.3 889.3 557.2L900 564L900 601L889.3 601C878.7 601 857.3 601 835.8 601C814.3 601 792.7 601 771.2 601C749.7 601 728.3 601 707 601C685.7 601 664.3 601 643 601C621.7 601 600.3 601 578.8 601C557.3 601 535.7 601 514.2 601C492.7 601 471.3 601 450 601C428.7 601 407.3 601 385.8 601C364.3 601 342.7 601 321.2 601C299.7 601 278.3 601 257 601C235.7 601 214.3 601 193 601C171.7 601 150.3 601 128.8 601C107.3 601 85.7 601 64.2 601C42.7 601 21.3 601 10.7 601L0 601Z" fill="#00fd23"></path></svg>